<svg xmlns="http://www.w3.org/2000/svg" version="1.1" xmlns:xlink="http://www.w3.org/1999/xlink" xmlns:svgjs="http://svgjs.com/svgjs" width="1440" height="560" preserveAspectRatio="none" viewBox="0 0 1440 560"><g mask="url(&quot;#SvgjsMask1014&quot;)" fill="none"><rect width="1440" height="560" x="0" y="0" fill="#1e3266"></rect><path d="M1512 560L0 560 L0 312.63Q57.4 250.03, 120 307.44Q187.78 255.22, 240 322.99Q321 284, 360 365Q368.11 301.11, 432 309.22Q474.61 279.83, 504 322.44Q585.55 283.99, 624 365.54Q624.21 293.75, 696 293.95Q772.75 250.69, 816 327.44Q862.4 301.84, 888 348.24Q955.61 295.85, 1008 363.45Q1033.13 268.59, 1128 293.72Q1172.89 266.61, 1200 311.5Q1275.76 267.26, 1320 343.03Q1386.88 289.9, 1440 356.78Q1451.59 296.37, 1512 307.95z" fill="rgba(53, 108, 177, 1)"></path><path d="M1560 560L0 560 L0 358.86Q36.19 323.06, 72 359.25Q114.37 329.62, 144 371.98Q211.9 367.88, 216 435.78Q264.22 364, 336 412.22Q375.98 332.2, 456 372.18Q521.56 317.74, 576 383.29Q625.89 361.18, 648 411.07Q678.53 321.61, 768 352.14Q818.58 330.72, 840 381.3Q927.42 348.72, 960 436.14Q978.3 382.44, 1032 400.73Q1045.32 342.05, 1104 355.37Q1147.18 326.56, 1176 369.74Q1229.94 351.68, 1248 405.62Q1325.99 363.62, 1368 441.61Q1376.66 378.27, 1440 386.94Q1505.6 332.54, 1560 398.14z" fill="rgba(255, 255, 255, 1)"></path><path d="M1488 560L0 560 L0 473.84Q19.08 420.92, 72 440.01Q143.88 391.88, 192 463.76Q234.88 434.64, 264 477.53Q304.92 398.44, 384 439.36Q412.91 396.27, 456 425.19Q512.25 409.44, 528 465.7Q598.5 416.2, 648 486.71Q664.24 430.95, 720 447.19Q749.62 404.81, 792 434.43Q821.55 391.98, 864 421.53Q940.02 377.55, 984 453.57Q1066.53 416.1, 1104 498.62Q1129.77 404.39, 1224 430.16Q1272.56 406.72, 1296 455.27Q1385.63 424.9, 1416 514.53Q1438.54 465.06, 1488 487.6z" fill="rgba(65, 46, 46, 0)"></path><path d="M1512 560L0 560 L0 577Q-6.96 498.04, 72 491.09Q165.83 464.92, 192 558.76Q231.9 478.66, 312 518.57Q358.57 445.15, 432 491.72Q536.74 476.46, 552 581.2Q603.31 512.51, 672 563.82Q706.89 478.71, 792 513.6Q840.28 441.88, 912 490.16Q953.41 459.58, 984 500.99Q1026.32 471.31, 1056 513.63Q1080.22 465.86, 1128 490.08Q1181.49 471.57, 1200 525.06Q1280.94 486, 1320 566.94Q1366.02 492.96, 1440 538.98Q1466.73 493.71, 1512 520.44z" fill="rgba(255, 255, 255, 0)"></path></g><defs><mask id="SvgjsMask1014"><rect width="1440" height="560" fill="#ffffff"></rect></mask></defs></svg>