<svg xmlns="http://www.w3.org/2000/svg" version="1.1" xmlns:xlink="http://www.w3.org/1999/xlink" xmlns:svgjs="http://svgjs.com/svgjs" width="1440" height="560" preserveAspectRatio="none" viewBox="0 0 1440 560"><g mask="url(&quot;#SvgjsMask1000&quot;)" fill="none"><rect width="1440" height="560" x="0" y="0" fill="#1e3266"></rect><path d="M1488 560L0 560 L0 308.89Q62.27 299.16, 72 361.43Q117.09 286.52, 192 331.62Q203.81 271.43, 264 283.23Q308.4 255.63, 336 300.03Q406.37 250.39, 456 320.76Q536.77 281.53, 576 362.31Q580.71 295.02, 648 299.73Q675.49 255.22, 720 282.71Q798.07 240.78, 840 318.86Q890.52 249.38, 960 299.9Q1044.52 264.42, 1080 348.94Q1084.07 281.01, 1152 285.08Q1187.02 248.1, 1224 283.11Q1284.82 271.93, 1296 332.75Q1363.48 280.23, 1416 347.71Q1458.95 318.66, 1488 361.62z" fill="#182f5d"></path><path d="M1488 560L0 560 L0 445.9Q7.56 381.45, 72 389.01Q140.69 337.69, 192 406.38Q241.59 383.97, 264 433.55Q272.07 369.63, 336 377.7Q378.02 347.72, 408 389.74Q484.76 346.5, 528 423.26Q555.83 331.09, 648 358.91Q689.07 327.98, 720 369.04Q811.54 340.58, 840 432.11Q884.77 356.88, 960 401.66Q1003.4 373.06, 1032 416.46Q1047.12 359.58, 1104 374.7Q1156.5 307.2, 1224 359.7Q1308.66 324.37, 1344 409.03Q1389.3 382.32, 1416 427.62Q1428.53 368.14, 1488 380.67z" fill="#25467d"></path><path d="M1464 560L0 560 L0 429.93Q77.27 435.2, 72 512.47Q110 478.47, 144 516.47Q177.01 429.48, 264 462.49Q317.23 395.72, 384 448.94Q472.12 417.06, 504 505.18Q546.27 475.45, 576 517.72Q585.75 455.47, 648 465.21Q666.38 411.59, 720 429.97Q765.95 403.92, 792 449.87Q839.12 424.99, 864 472.1Q897.96 386.06, 984 420.02Q1049.99 366.01, 1104 432.01Q1205.13 413.14, 1224 514.28Q1275.7 445.98, 1344 497.68Q1393.47 427.15, 1464 476.63z" fill="#356cb1"></path><path d="M1512 560L0 560 L0 584.63Q46.84 511.47, 120 558.31Q171.3 489.61, 240 540.9Q265.39 494.29, 312 519.68Q370.39 506.07, 384 564.45Q416.39 476.84, 504 509.23Q531.44 464.67, 576 492.11Q673.52 469.63, 696 567.15Q711.8 510.95, 768 526.75Q833.49 472.24, 888 537.72Q930.4 508.12, 960 550.52Q1004.14 474.66, 1080 518.81Q1124.58 491.38, 1152 535.96Q1190.98 454.94, 1272 493.91Q1367.42 469.33, 1392 564.75Q1446.75 499.5, 1512 554.24z" fill="white"></path></g><defs><mask id="SvgjsMask1000"><rect width="1440" height="560" fill="#ffffff"></rect></mask></defs></svg>